<svg width="80" height="84" viewBox="0 0 80 84" fill="none" xmlns="http://www.w3.org/2000/svg">
<path d="M75.3287 35.4033L41.3287 5.18109C40.571 4.50752 39.429 4.50752 38.6713 5.18109L4.67127 35.4033C4.2443 35.7828 4 36.3269 4 36.8981V39.614C4 40.4477 4.51715 41.1939 5.29775 41.4867L10.7022 43.5133C11.4829 43.8061 12 44.5523 12 45.386V78C12 79.1046 12.8954 80 14 80H66C67.1046 80 68 79.1046 68 78V45.386C68 44.5523 68.5171 43.8061 69.2978 43.5133L74.7022 41.4867C75.4829 41.1939 76 40.4477 76 39.614V36.8981C76 36.3269 75.7557 35.7828 75.3287 35.4033Z" stroke="#6b7280" stroke-width="8" stroke-linejoin="round"/>
<path d="M40 54V64" stroke="#6b7280" stroke-width="8" stroke-linecap="round"/>
</svg>
