<svg width="80" height="84" viewBox="0 0 80 84" fill="none" xmlns="http://www.w3.org/2000/svg">
  <!-- Calendar base -->
  <rect x="12" y="20" width="56" height="48" rx="4" stroke="#6b7280" stroke-width="8" fill="none"/>
  
  <!-- Calendar header -->
  <rect x="12" y="20" width="56" height="12" rx="4" stroke="#6b7280" stroke-width="8" fill="none"/>
  
  <!-- Calendar rings -->
  <rect x="22" y="12" width="4" height="16" rx="2" fill="#6b7280"/>
  <rect x="54" y="12" width="4" height="16" rx="2" fill="#6b7280"/>
  
  <!-- Calendar grid dots -->
  <circle cx="24" cy="40" r="2" fill="#6b7280"/>
  <circle cx="32" cy="40" r="2" fill="#6b7280"/>
  <circle cx="40" cy="40" r="2" fill="#6b7280"/>
  <circle cx="48" cy="40" r="2" fill="#6b7280"/>
  <circle cx="56" cy="40" r="2" fill="#6b7280"/>
  
  <circle cx="24" cy="48" r="2" fill="#6b7280"/>
  <circle cx="32" cy="48" r="2" fill="#6b7280"/>
  <circle cx="40" cy="48" r="2" fill="#6b7280"/>
  <circle cx="48" cy="48" r="2" fill="#6b7280"/>
  <circle cx="56" cy="48" r="2" fill="#6b7280"/>
  
  <circle cx="24" cy="56" r="2" fill="#6b7280"/>
  <circle cx="32" cy="56" r="2" fill="#6b7280"/>
  <circle cx="40" cy="56" r="2" fill="#6b7280"/>
  <circle cx="48" cy="56" r="2" fill="#6b7280"/>
  <circle cx="56" cy="56" r="2" fill="#6b7280"/>
  
  <!-- Clock overlay in bottom right -->
  <circle cx="60" cy="60" r="12" fill="#6b7280"/>
  <circle cx="60" cy="60" r="8" fill="white"/>
  <!-- Clock hands -->
  <line x1="60" y1="60" x2="60" y2="54" stroke="#6b7280" stroke-width="2" stroke-linecap="round"/>
  <line x1="60" y1="60" x2="64" y2="60" stroke="#6b7280" stroke-width="1.5" stroke-linecap="round"/>
  <circle cx="60" cy="60" r="1" fill="#6b7280"/>
</svg>