<svg width="88" height="87" viewBox="0 0 88 87" fill="none" xmlns="http://www.w3.org/2000/svg">
<path d="M82 4H6C4.89543 4 4 4.89543 4 6V60C4 61.1046 4.89543 62 6 62H10.6851C11.4832 62 12.2049 62.4745 12.5213 63.2071L20.3323 81.296C20.8924 82.5928 22.5838 82.9162 23.5827 81.9173L42.9142 62.5858C43.2893 62.2107 43.798 62 44.3284 62H82C83.1046 62 84 61.1046 84 60V6C84 4.89543 83.1046 4 82 4Z" stroke="#6b7280" stroke-width="8" stroke-linecap="round"/>
<path d="M44 32V36" stroke="#6b7280" stroke-width="8" stroke-linecap="round"/>
<path d="M60 32V36" stroke="#6b7280" stroke-width="8" stroke-linecap="round"/>
<path d="M28 32V36" stroke="#6b7280" stroke-width="8" stroke-linecap="round"/>
</svg>
